# xmcd
#
# Track frame offsets: 
#        150
#        14733
#        31274
#        49364
#        70471
#        84546
#        101370
#        121196
#        138903
#        153629
#        172402
#        188773
#        209957
#        231659
#        248996
#        261909
#
# Disc length: 3910 seconds
#
# Revision: 7
# Processed by: cddbd v1.5.2PL0 Copyright (c) Steve Scherf et al.
# Submitted via: ExactAudioCopyFreeDBPlugin 1.0
#
DISCID=f80f4410
DTITLE=???? - ??????????????
DYEAR=1989
DGENRE=Pop
TTITLE0=???
TTITLE1=?????
TTITLE2=?????
TTITLE3=?
TTITLE4=??????????????
TTITLE5=?????
TTITLE6=??
TTITLE7=??????????
TTITLE8=????????????
TTITLE9=???
TTITLE10=???
TTITLE11=???
TTITLE12=???????????
TTITLE13=?????
TTITLE14=? ??????
TTITLE15=Wind and Roses
EXTD=YEAR: 1989
EXTT0=
EXTT1=
EXTT2=
EXTT3=
EXTT4=
EXTT5=
EXTT6=
EXTT7=
EXTT8=
EXTT9=
EXTT10=
EXTT11=
EXTT12=
EXTT13=
EXTT14=
EXTT15=
PLAYORDER=
